<svg width="107" height="35" viewBox="0 0 107 35" fill="none" xmlns="http://www.w3.org/2000/svg">
<rect width="107" height="35" rx="17.5" fill="#080809"/>
<g clip-path="url(#clip0_26_25)">
<path d="M28.5075 17.0013L18.4639 26.6725C17.9936 26.3511 17.7144 25.8165 17.7193 25.2468V8.75578C17.7144 8.18614 17.9936 7.6515 18.4639 7.33008L28.5075 17.0013Z" fill="#2196F3"/>
<path d="M32.0217 13.6236L28.5074 17.0018L18.4639 7.33053C18.5017 7.3012 18.5411 7.27392 18.5819 7.2488C19.1127 6.92708 19.7757 6.9167 20.3164 7.22156L32.0217 13.6236Z" fill="#4CAF50"/>
<path d="M36.2806 17.0012C36.2872 17.6442 35.9377 18.2382 35.3725 18.5449L32.0217 20.3793L28.5073 17.0012L32.0217 13.623L35.3725 15.4574C35.9377 15.7641 36.2872 16.3581 36.2806 17.0012Z" fill="#F0BB1F"/>
<path d="M32.0217 20.3801L20.3164 26.7822C19.7745 27.0823 19.114 27.0719 18.5819 26.7549C18.5411 26.7298 18.5017 26.7025 18.4639 26.6732L28.5074 17.002L32.0217 20.3801Z" fill="#F15A2B"/>
</g>
<path d="M48.024 11.8791H45.216V12.9991H46.712C46.512 13.5351 46.024 13.8631 45.28 13.8631C44.192 13.8631 43.52 13.1671 43.52 12.2151C43.52 11.2311 44.224 10.5351 45.168 10.5351C45.8 10.5351 46.304 10.8231 46.536 11.1911L47.624 10.5671C47.152 9.81511 46.248 9.28711 45.176 9.28711C43.528 9.28711 42.24 10.5831 42.24 12.2071C42.24 13.8151 43.504 15.1111 45.264 15.1111C46.832 15.1111 48.024 14.0711 48.024 12.3591V11.8791Z" fill="white"/>
<path d="M49.6256 13.7671V12.7751H51.6256V11.5591H49.6256V10.6311H51.8256V9.39911H48.3456V14.9991H51.8656V13.7671H49.6256Z" fill="white"/>
<path d="M55.9478 9.39911H51.7878V10.6311H53.2278V14.9991H54.5078V10.6311H55.9478V9.39911Z" fill="white"/>
<path d="M57.7081 9.39911V14.9991H58.9881V9.39911H57.7081Z" fill="white"/>
<path d="M63.3103 9.39911H59.1503V10.6311H60.5903V14.9991H61.8703V10.6311H63.3103V9.39911Z" fill="white"/>
<path d="M67.7426 15.1111C69.3506 15.1111 70.6546 13.8471 70.6546 12.1991C70.6546 10.5511 69.3506 9.28711 67.7426 9.28711C66.1346 9.28711 64.8306 10.5511 64.8306 12.1991C64.8306 13.8471 66.1346 15.1111 67.7426 15.1111ZM67.7426 13.8631C66.8306 13.8631 66.1106 13.1991 66.1106 12.1991C66.1106 11.1991 66.8306 10.5351 67.7426 10.5351C68.6546 10.5351 69.3746 11.1991 69.3746 12.1991C69.3746 13.1991 68.6546 13.8631 67.7426 13.8631Z" fill="white"/>
<path d="M74.0953 9.39911V12.4391L71.9353 9.39911H70.9753V14.9991H72.2553V11.9591L74.4153 14.9991H75.3753V9.39911H74.0953Z" fill="white"/>
<path d="M48.024 21.3911V21.6071C48.024 22.3058 47.776 22.8951 47.28 23.3751C46.784 23.8498 46.1307 24.0871 45.32 24.0871C44.4667 24.0871 43.7627 23.8098 43.208 23.2551C42.6533 22.6951 42.376 22.0098 42.376 21.1991C42.376 20.3884 42.6507 19.7058 43.2 19.1511C43.7493 18.5911 44.4453 18.3111 45.288 18.3111C45.8 18.3111 46.2693 18.4338 46.696 18.6791C47.128 18.9244 47.4613 19.2524 47.696 19.6631L47.32 19.8871C47.1333 19.5351 46.856 19.2524 46.488 19.0391C46.1253 18.8258 45.7253 18.7191 45.288 18.7191C44.5627 18.7191 43.9653 18.9591 43.496 19.4391C43.032 19.9138 42.8 20.5004 42.8 21.1991C42.8 21.8978 43.0347 22.4871 43.504 22.9671C43.9733 23.4418 44.5787 23.6791 45.32 23.6791C45.976 23.6791 46.5067 23.5004 46.912 23.1431C47.3173 22.7858 47.544 22.3351 47.592 21.7911H45.216V21.3911H48.024Z" fill="white"/>
<path d="M53.7026 23.2471C53.1426 23.8071 52.4599 24.0871 51.6546 24.0871C50.8493 24.0871 50.1666 23.8071 49.6066 23.2471C49.0466 22.6818 48.7666 21.9991 48.7666 21.1991C48.7666 20.3991 49.0466 19.7191 49.6066 19.1591C50.1666 18.5938 50.8493 18.3111 51.6546 18.3111C52.4599 18.3111 53.1426 18.5938 53.7026 19.1591C54.2626 19.7191 54.5426 20.3991 54.5426 21.1991C54.5426 21.9991 54.2626 22.6818 53.7026 23.2471ZM49.9026 22.9591C50.3826 23.4391 50.9666 23.6791 51.6546 23.6791C52.3426 23.6791 52.9239 23.4391 53.3986 22.9591C53.8786 22.4738 54.1186 21.8871 54.1186 21.1991C54.1186 20.5111 53.8786 19.9271 53.3986 19.4471C52.9239 18.9618 52.3426 18.7191 51.6546 18.7191C50.9666 18.7191 50.3826 18.9618 49.9026 19.4471C49.4279 19.9271 49.1906 20.5111 49.1906 21.1991C49.1906 21.8871 49.4279 22.4738 49.9026 22.9591Z" fill="white"/>
<path d="M60.2339 23.2471C59.6739 23.8071 58.9912 24.0871 58.1859 24.0871C57.3805 24.0871 56.6979 23.8071 56.1379 23.2471C55.5779 22.6818 55.2979 21.9991 55.2979 21.1991C55.2979 20.3991 55.5779 19.7191 56.1379 19.1591C56.6979 18.5938 57.3805 18.3111 58.1859 18.3111C58.9912 18.3111 59.6739 18.5938 60.2339 19.1591C60.7939 19.7191 61.0739 20.3991 61.0739 21.1991C61.0739 21.9991 60.7939 22.6818 60.2339 23.2471ZM56.4339 22.9591C56.9139 23.4391 57.4979 23.6791 58.1859 23.6791C58.8739 23.6791 59.4552 23.4391 59.9299 22.9591C60.4099 22.4738 60.6499 21.8871 60.6499 21.1991C60.6499 20.5111 60.4099 19.9271 59.9299 19.4471C59.4552 18.9618 58.8739 18.7191 58.1859 18.7191C57.4979 18.7191 56.9139 18.9618 56.4339 19.4471C55.9592 19.9271 55.7219 20.5111 55.7219 21.1991C55.7219 21.8871 55.9592 22.4738 56.4339 22.9591Z" fill="white"/>
<path d="M67.4771 21.3911V21.6071C67.4771 22.3058 67.2291 22.8951 66.7331 23.3751C66.2371 23.8498 65.5838 24.0871 64.7731 24.0871C63.9198 24.0871 63.2158 23.8098 62.6611 23.2551C62.1064 22.6951 61.8291 22.0098 61.8291 21.1991C61.8291 20.3884 62.1038 19.7058 62.6531 19.1511C63.2024 18.5911 63.8984 18.3111 64.7411 18.3111C65.2531 18.3111 65.7224 18.4338 66.1491 18.6791C66.5811 18.9244 66.9144 19.2524 67.1491 19.6631L66.7731 19.8871C66.5864 19.5351 66.3091 19.2524 65.9411 19.0391C65.5784 18.8258 65.1784 18.7191 64.7411 18.7191C64.0158 18.7191 63.4184 18.9591 62.9491 19.4391C62.4851 19.9138 62.2531 20.5004 62.2531 21.1991C62.2531 21.8978 62.4878 22.4871 62.9571 22.9671C63.4264 23.4418 64.0318 23.6791 64.7731 23.6791C65.4291 23.6791 65.9598 23.5004 66.3651 23.1431C66.7705 22.7858 66.9971 22.3351 67.0451 21.7911H64.6691V21.3911H67.4771Z" fill="white"/>
<path d="M68.9637 23.5991H71.6037V23.9991H68.5397V18.3991H68.9637V23.5991Z" fill="white"/>
<path d="M72.9091 23.5991H75.7091V23.9991H72.4851V18.3991H75.6691V18.7991H72.9091V20.9751H75.4691V21.3751H72.9091V23.5991Z" fill="white"/>
<path d="M80.7875 18.3991C81.2888 18.3991 81.7048 18.5644 82.0355 18.8951C82.3662 19.2258 82.5315 19.6391 82.5315 20.1351C82.5315 20.6311 82.3662 21.0444 82.0355 21.3751C81.7048 21.7004 81.2888 21.8631 80.7875 21.8631H79.3075V23.9991H78.8835V18.3991H80.7875ZM80.7875 21.4631C81.1715 21.4631 81.4862 21.3378 81.7315 21.0871C81.9822 20.8364 82.1075 20.5191 82.1075 20.1351C82.1075 19.7458 81.9822 19.4258 81.7315 19.1751C81.4862 18.9244 81.1715 18.7991 80.7875 18.7991H79.3075V21.4631H80.7875Z" fill="white"/>
<path d="M84.0028 23.5991H86.6428V23.9991H83.5788V18.3991H84.0028V23.5991Z" fill="white"/>
<path d="M91.4484 23.9991L90.9044 22.5751H88.0964L87.5524 23.9991H87.1044L89.2804 18.3991H89.7284L91.8964 23.9991H91.4484ZM88.2564 22.1751H90.7524L89.5044 18.9191L88.2564 22.1751Z" fill="white"/>
<path d="M95.8809 18.3991L93.8409 21.6951V23.9991H93.4169V21.6951L91.3769 18.3991H91.8569L93.6329 21.2871L95.4009 18.3991H95.8809Z" fill="white"/>
<defs>
<clipPath id="clip0_26_25">
<rect width="20" height="20" fill="white" transform="translate(17 7)"/>
</clipPath>
</defs>
</svg>
